<svg xmlns="http://www.w3.org/2000/svg" id="Layer_1" x="0" y="0" class="header__logo" version="1.1" viewBox="0 0 612 792" xml:space="preserve"><style>.st10,.st100{fill:#ccc}.st20{fill:transparent}.st40{fill:#ccc}</style><switch><g><path d="M305.8 656.6c-69.5 0-134.9-27.1-184.1-76.2-49.2-49.2-76.2-114.5-76.2-184.1s27.1-134.9 76.2-184.1C170.9 163 236.2 136 305.8 136s134.9 27.1 184.1 76.2c49.2 49.2 76.2 114.5 76.2 184.1S539 531.2 489.8 580.4s-114.5 76.2-184 76.2zm0-513.2c-139.4 0-252.9 113.4-252.9 252.9 0 139.4 113.4 252.9 252.9 252.9 139.4 0 252.9-113.4 252.9-252.9-.1-139.4-113.5-252.9-252.9-252.9z" class="st10"></path><ellipse cx="305.8" cy="396.3" fill="transparent" rx="252.9" ry="252.9" transform="rotate(-45.001 305.752 396.305)"></ellipse><path d="M512.9 396.3z" class="st100"></path><path d="M421.1 228.8c-5.8-10-16.4-16.2-28-16.2H218.3c-11.5 0-22.2 6.2-28 16.2L103 380.1c-5.8 10-5.8 22.3 0 32.3l27.6 47.8c2.9-8.7 5.9-17.5 9.1-26.3 9.5-26.3 20.3-52.4 32.3-76.7 10.3-20.8 21.5-40.2 33.7-57.2.9-1.3 1.8-2.6 2.8-3.8 18.1-24.5 38.3-43.6 60.6-53.8.4-.2.8-.4 1.2-.5.4-.2.8-.4 1.2-.5.5-.2 1.1-.4 1.6-.6 10.5-4.3 21.5-6.6 32.9-6.6s22.4 2.3 32.9 6.6c.5.2 1.1.4 1.6.6.8.3 1.5.7 2.3 1.1 22.3 10.2 42.4 29.2 60.6 53.8.1.2.2.3.4.5l2.4 3.3c11.3 15.7 21.7 33.5 31.4 52.6.8 1.5 1.5 3.1 2.3 4.6 12 24.2 22.7 50.3 32.3 76.7.7 1.8 1.3 3.6 2 5.4 2.5 6.9 4.8 13.9 7.1 20.8l27.6-47.8c2.9-5 4.3-10.6 4.3-16.2s-1.4-11.2-4.3-16.2l-87.8-151.2z" class="st20"></path><path d="M276.1 224.6l6.9-12h-5.6l-5.5 9.6c-.5.8-1.4 1.3-2.3 1.3h-27.3c-.9 0-1.8-.5-2.3-1.3l-5.5-9.6h-5.6l6.9 12c.5.8.5 1.8 0 2.7L222.1 251c-.5.8-1.4 1.3-2.3 1.3h-27.3c-.9 0-1.8-.5-2.3-1.3l-6.3-11-2.8 4.8 5 8.6c.5.8.5 1.8 0 2.6l-13.7 23.7c-.5.8-1.3 1.3-2.3 1.3h-9.9l-2.8 4.8h12.7c.9 0 1.8.5 2.3 1.3l13.7 23.7c.5.8.5 1.8 0 2.7l-13.7 23.7c-.5.8-1.4 1.3-2.3 1.3h-27.3c-.9 0-1.8-.5-2.3-1.3l-6.3-11-2.8 4.8 5 8.6c.5.8.5 1.8 0 2.6l-13.7 23.7c-.5.8-1.4 1.3-2.3 1.3h-9.9l-2.8 4.8h12.7c.9 0 1.8.5 2.3 1.3l13.7 23.7c.5.8.5 1.8 0 2.6l-13.7 23.7c-.5.8-1.3 1.3-2.3 1.3H110l2.8 4.8h7.6c.9 0 1.8.5 2.3 1.3l11.2 19.5 2.1-6-9.2-15.9c-.5-.8-.5-1.8 0-2.6l13.7-23.7c.5-.8 1.3-1.3 2.3-1.3h9.6c.7-1.6 1.3-3.2 2-4.8h-11.6c-.9 0-1.8-.5-2.3-1.3l-13.7-23.7c-.5-.8-.5-1.8 0-2.7l13.7-23.7c.5-.8 1.4-1.3 2.3-1.3h27.3c.9 0 1.8.5 2.3 1.3l3.1 5.4c.9-1.7 1.8-3.4 2.6-5l-1.6-2.8c-.5-.8-.5-1.8 0-2.7l13.7-23.7c.5-.8 1.4-1.3 2.3-1.3h3.2c1-1.6 2.1-3.2 3.1-4.8h-6.4c-.9 0-1.8-.5-2.3-1.3l-13.7-23.7c-.5-.8-.5-1.8 0-2.6l13.7-23.7c.5-.8 1.3-1.3 2.3-1.3h27.3c.9 0 1.8.5 2.3 1.3l7.4 12.8c1.2-1.2 2.4-2.3 3.5-3.5l-6.7-11.7c-.5-.8-.5-1.8 0-2.7l13.7-23.7c.5-.8 1.4-1.3 2.3-1.3h27.3c.9 0 1.8.5 2.3 1.3l5.4 9.4c1.6-.5 3.1-1 4.7-1.5l-6-10.3c-.2-.7-.2-1.7.2-2.5zM488.9 430.7c.5-.8 1.3-1.3 2.3-1.3h7.6l2.8-4.8h-10.4c-.9 0-1.8-.5-2.3-1.3l-13.7-23.7c-.5-.8-.5-1.8 0-2.6l13.7-23.7c.5-.8 1.3-1.3 2.3-1.3h12.7l-2.8-4.8h-9.9c-.9 0-1.8-.5-2.3-1.3l-13.7-23.7c-.5-.8-.5-1.8 0-2.6l5-8.6-2.8-4.8-6.4 11c-.5.8-1.4 1.3-2.3 1.3h-27.3c-.9 0-1.8-.5-2.3-1.3l-13.7-23.7c-.5-.8-.5-1.8 0-2.6l13.7-23.7c.5-.8 1.3-1.3 2.3-1.3h12.7l-2.8-4.8h-9.9c-.9 0-1.8-.5-2.3-1.3L425.4 256c-.5-.8-.5-1.8 0-2.6l5-8.6-2.8-4.8-6.3 11c-.5.8-1.3 1.3-2.3 1.3h-27.3c-.9 0-1.8-.5-2.3-1.3l-13.7-23.7c-.5-.8-.5-1.8 0-2.7l6.9-12H377l-5.5 9.6c-.5.8-1.4 1.3-2.3 1.3h-27.3c-.9 0-1.8-.5-2.3-1.3l-5.5-9.6h-5.5l6.9 12c.5.8.5 1.8 0 2.6l-6 10.3c1.6.5 3.1.9 4.7 1.5l5.4-9.4c.5-.8 1.3-1.3 2.3-1.3h27.3c.9 0 1.8.5 2.3 1.3l13.7 23.7c.5.8.5 1.8 0 2.7l-6.7 11.7c1.2 1.1 2.4 2.3 3.5 3.5l7.4-12.8c.5-.8 1.4-1.3 2.3-1.3H419c.9 0 1.8.5 2.3 1.3l13.7 23.7c.5.8.5 1.8 0 2.6l-13.7 23.7c-.5.8-1.3 1.3-2.3 1.3h-6.4c1 1.6 2.1 3.2 3.1 4.8h3.3c.9 0 1.8.5 2.3 1.3l13.7 23.7c.5.8.5 1.8 0 2.6l-1.6 2.8c.9 1.7 1.8 3.4 2.6 5.1l3.1-5.4c.5-.8 1.4-1.3 2.3-1.3h27.3c.9 0 1.8.5 2.3 1.3l13.7 23.7c.5.8.5 1.8 0 2.6L471 394.6c-.5.8-1.3 1.3-2.3 1.3h-11.6c.7 1.6 1.3 3.2 2 4.8h9.6c.9 0 1.8.5 2.3 1.3l13.7 23.7c.5.8.5 1.8 0 2.6l-9.2 15.9 2.1 6 11.3-19.5c-.1.1 0 .1 0 0z" class="st10"></path><path d="M98.4 285.2l.6.3c2.2 1 5.9 2.8 6.9 3.4 2.5 1.4 3.4 3.5 2.7 6.4-.6 2.5-1.5 4.8-4.2 10.9-3.4 7.6-4.8 9.8-6.9 11.1-2.2 1.4-4 1-11.2-2.3-10.4-4.7-10.6-5.9-4.2-20.3 3.7-8.2 5.6-11 8-11.7 1.5-.4 3-.1 6.3 1.3l-3 6.7c-1.3-.5-1.6-.6-2.1-.3-.8.5-1.6 2-3.9 7-3.6 8-3.6 8 2.2 10.6 3.8 1.7 5 2 5.9 1.5.7-.4 1.1-.9 2-2.8l1.8-3.9c3.5-7.9 3.6-8.1 1.1-9.2l-.6-.3-4 8.9-4.4-2 7-15.3zM123.7 263.7l-9 13.3 2.3 4-4.7 7-13-24.2 6.4-9.5 27.2 3-4.7 7-4.5-.6zm-16.1-2.1l-.8 1.2 5 9 6.1-9-10.3-1.2zM134.4 220.2l4.6 4.2-7.3 8 13.4 12.2-5.2 5.7-13.4-12.2-7.3 8-4.6-4.2 19.8-21.7zM161.1 197.8l3.6 4.4-15.2 12.4 2.2 2.7 14.4-11.8 3.4 4.1-14.4 11.8 2.4 3 15.3-12.5 3.7 4.5-20.9 17.1-15.4-18.8 20.9-16.9zM173.4 189.1l14.4 12.9 1.2-.6-3.8-18.6 7.9-4.2 13.5 13.4 1.2-.7-2.9-19.1 6.9-3.7 3.2 25.8-10 5.4-12.7-13.4 4.2 18-10.1 5.4-19.6-17 6.6-3.6zM246.4 179.1l-15.3 4.8-.8 4.5-8.1 2.5 5-27 11-3.4 19.4 19.4-8 2.5-3.2-3.3zm-11.3-11.7l-1.4.4L232 178l10.4-3.2-7.3-7.4zM260.6 155.1l9.3 8.4 6-10.8 9.5-1.5-10.7 17.5 1.3 8.5-7.6 1.2-1.3-8.5-16.1-13.3 9.6-1.5zM337.7 163.2v.7c-.2 2.4-.6 6.5-.8 7.7-.5 2.8-2.2 4.4-5.1 4.8-2.5.3-5.1.3-11.6-.1-8.3-.6-10.9-1.1-12.8-2.6-2-1.6-2.3-3.4-1.8-11.3.8-11.3 1.9-12 17.6-10.9 9 .6 12.3 1.4 13.8 3.5.9 1.3 1.1 2.8.9 6.3l-7.4-.5c.1-1.4 0-1.7-.4-2.1-.7-.6-2.4-.8-7.9-1.2-8.7-.6-8.8-.6-9.2 5.7-.3 4.1-.1 5.4.6 6.1.6.6 1.2.7 3.3.9l4.3.4c8.6.6 8.8.5 9-2.2v-.7l-9.7-.7.3-4.8 16.9 1zM366.6 179.5l-15.6-3.8-3 3.5-8.2-2 18.2-20.5 11.2 2.7 6.6 26.6-8.2-2-1-4.5zm-3.6-15.9l-1.4-.3-6.7 7.8 10.5 2.6-2.4-10.1zM395.3 167.8l-4.5 10.2c-1.5 3.5-1.5 3.6-1.7 4.5-.4 1.9.7 2.9 6.5 5.4 4.7 2.1 6.1 2.5 7.2 2 .8-.3 1.2-.9 2.2-2.9.4-.7.9-1.8 1.1-2.3l4.5-10.2 6.8 3-4.5 10.2c-2.3 5-2.5 5.3-3.4 6.8-1.5 2.4-4 3.4-6.7 2.8-2.2-.5-4.5-1.3-9.6-3.6-8.5-3.8-10.9-5.4-11.8-7.9-.6-1.6-.4-3.1.9-6.5.3-.7.3-.7 1.8-4.4l4.5-10.2 6.7 3.1zM437.2 189.2l.7 22.1.6.4 9.8-15.2 6.3 4.1-13.3 20.3-10.7-7-.7-22.2-.7-.4-9.8 15.3-6.3-4.1 13.3-20.3 10.8 7zM482.7 225.8l-4.2 4.6-8-7.3-12.2 13.3-5.7-5.3 12.3-13.3-8-7.3 4.2-4.6 21.6 19.9zM492.9 237.7l-14 11.5 10.9 13.3-4.8 3.9-15.8-19.3 18.8-15.4 4.9 6zM522.3 280.5l-4.9 3-10.2-16.7-3 1.8 9.7 15.9-4.6 2.8-9.7-15.9-3.3 2 10.3 16.8-5 3-14-23.1 20.7-12.6 14 23zM537.1 313.8l-5.7 2.4-4.2-9.9-16.6 7.1-3-7.1 16.6-7.1-4.2-9.9 5.7-2.4 11.4 26.9z" class="st40"></path><path d="M452.5 509.6c-25.5-117.8-72-263.2-146.7-263.2-74.7 0-121.3 145.4-146.7 263.1-2 9.2-3.9 18.3-5.6 27.1L143.4 590c44 36.9 100.6 59.2 162.4 59.2 61.8 0 118.4-22.3 162.4-59.2l-10.1-53.3c-1.8-8.9-3.6-17.9-5.6-27.1z" class="st20"></path><g><path d="M311.2 332.3l1-16.8c.2-6-37.9-6.9-37.8-1.3v16.9c5.9-1.1 21.4-3.1 36.8 1.2zM274.4 337.2v20.1l20.2-1.2c8.6-.4 9.8 3.2 14.1 20l2.2-37.6c-15.7-4.8-32.1-2.1-36.5-1.3zM234.7 345.9l.6 15.5 33.5-3.4v-15.4c-14.8-.4-29.4 2.3-34.1 3.3zM268.8 336.5v-15c0-6-35.1-3.5-34.9 2.4l.6 15.9c5.8-1.2 19.8-3.6 34.3-3.3zM346.8 392.3c-.7 3.5 20.9 9.1 21.9 6.1l9.8-32.1c-7.3-5.9-19.2-7.9-24.5-8.5l-7.2 34.5zM380.4 360.2l4-13.3c1.3-4.4-25.3-14.2-26.1-10l-3.1 14.9c5.8.7 17 2.7 25.2 8.4zM353.6 330c1.2-6.2-35.2-13-35.7-8.3l-1.5 18.6c5.4.2 21.2 1.2 33.9 6.8l3.3-17.1zM312.7 385.4c-.3 3.4 28.5 8.6 29.1 5.8l7.4-37.9c-12-5.8-28.4-6.8-33.2-6.9l-3.3 39z" class="st100"></path><path d="M323.3 483.9c4.4 0 8.8-.1 13.4-.4 7.9-.7 15.7-1.7 23.5-3.2 18.9-19.7 28.7-32.8 28.7-53.4 0-6.6-1.9-29.5-3.2-44.1-.2-2.5-3.8-2.9-4.5-.4l-5.7 21.4c-.6 2.6-2.9 4.4-5.6 4.4 0 0-18.4-1.2-27.6-7.9-.2-.1-9.7 27.7-14.3 41 1.2 11.5.7 26-4.7 42.6zM295 361.7l-59.9 5.2c-1.1.1-2 .3-2.9.5h-.1c-.2 0-.3.1-.5.1-5.8 1.7-8.4 6.1-9.1 8.6-.1.3-.2 1.1-.5 2.2 5.9 3.5 22.1 12.2 45.9 18.3 39.1-2.4 33.2-35.6 27.1-34.9zM268.1 410.4l-.5-7.6c-23.2-5.8-39.3-13.9-46.8-18.1-2.7 15.1-7.9 45.1-8.5 48.4-.4 2 5.6 6.8 13.4 13.6 24.8-15.2 37.9-30.3 42.4-36.3zM317 483.9c10.3-30 3.5-53.6 0-62.7-20.1-10.1-34.9-10.2-42.6-9.1-3.2 4.6-16.1 21.5-43.9 38.6 7.2 6.6 15.2 14.5 21 23.5 8 2.5 16 4.5 24.2 6.1 11.1 1.7 25.5 3.3 41.3 3.6zM385.4 580.4l7.3 45.2c-13.8 5.2-31.8 9.9-45 12.2l-1.2-15.2c-13.2 2.2-26.8 3.4-40.7 3.4-17.3 0-34.2-1.8-50.5-5.2l-2.1 14.9c-13.2-2.9-30.4-8.2-44.3-14.4l9.1-43.8c27.3 10.5 56.8 16.2 87.8 16.2 27.9-.1 54.7-4.7 79.6-13.3z" class="st100"></path><path d="M367.5 486.3s-10.6 3.2-29.8 4.6l.6 7.7c-33.6 3.6-66.5-3.9-66.5-3.9l.5-8.3c-17.1-3.4-29.5-7.3-29.5-7.3l-18 93.3c25.4 8.9 52.6 13.7 81 13.7 25.4 0 49.8-3.9 72.8-11l-11.1-88.8zm-98.7 35.4s36.8 8 71.4 2.9l1.5 20.2c-40.1 6.3-75.4-1-75.4-1l2.5-22.1zm37 40.9c-14.1 0-27.8-1.2-41.2-3.5l.9-7.6s36.3 7.6 76.8.7l.5 7.6c-12.1 1.9-24.5 2.8-37 2.8z" class="st100"></path></g><path d="M518.9 396.6c0-117.7-95.4-213.1-213.1-213.1-117.7 0-213.1 95.4-213.1 213.1 0 36.1 9 70.2 24.9 100l-17 47.4c12.3 17 26.7 32.5 42.7 46l8.6-45.8 1.4-7.6c1.7-8.8 3.6-17.8 5.6-27.1 1.6-7.4 3.3-14.8 5-22.4.9-3.8 1.8-7.6 2.7-11.3 1.8-7.6 3.8-15.2 5.8-22.9 1-3.8 2-7.6 3.1-11.4.5-1.9 1.1-3.8 1.6-5.7 1.6-5.7 3.3-11.4 5-17.1 1.1-3.8 2.3-7.5 3.5-11.3 20.7-65.4 48.4-124.5 84-149.1 2-1.4 4.1-2.7 6.2-3.9 2.1-1.2 4.2-2.2 6.4-3.2 2.1-.9 4.3-1.7 6.5-2.4 5.5-1.7 11.2-2.6 17-2.6 7 0 13.8 1.3 20.3 3.7 2.2.8 4.3 1.7 6.4 2.8 2.1 1.1 4.2 2.2 6.3 3.5 10.3 6.4 20 15.8 29 27.3 1.8 2.3 3.6 4.7 5.3 7.2 2.6 3.7 5.2 7.6 7.7 11.7s5 8.3 7.4 12.8c2.4 4.4 4.8 9 7.1 13.7 1.5 3.1 3 6.3 4.5 9.6 1.5 3.2 2.9 6.6 4.4 9.9 2.2 5 4.3 10.2 6.3 15.4 1.4 3.5 2.7 7 4 10.6 5.3 14.3 10.2 29.1 14.8 44.2 4 13.2 7.7 26.6 11.2 40 1.1 4.3 2.2 8.6 3.2 12.9 3.2 12.8 6.1 25.6 8.8 38 1 4.6 2 9.2 2.9 13.7.9 4.5 1.8 9 2.7 13.4l1.4 7.6L468 590c16.1-13.5 30.4-28.9 42.7-46L494 496.6c15.9-29.8 24.9-63.8 24.9-100zm-79.3-39.3c-.8-1.5-1.5-3.1-2.3-4.6-9.7-19.1-20.1-36.9-31.4-52.6-.8-1.1-1.6-2.3-2.4-3.3-.1-.2-.2-.3-.4-.5-18.1-24.5-38.3-43.6-60.6-53.8-.8-.4-1.5-.7-2.3-1.1-.5-.2-1.1-.4-1.6-.6-10.5-4.3-21.5-6.6-32.9-6.6-11.4 0-22.4 2.3-32.9 6.6-.5.2-1.1.4-1.6.6-.4.2-.8.3-1.2.5-.4.2-.8.4-1.2.5-22.3 10.2-42.4 29.2-60.6 53.8-.9 1.3-1.9 2.5-2.8 3.8-12.2 17-23.4 36.4-33.7 57.2-12 24.2-22.7 50.3-32.3 76.7-3.2 8.7-6.2 17.5-9.1 26.3L103 412.5c-5.8-10-5.8-22.3 0-32.3l87.4-151.4c5.8-10 16.4-16.2 28-16.2h174.8c11.5 0 22.2 6.2 28 16.2l87.4 151.4c1.4 2.5 2.5 5.1 3.2 7.9.2.7.3 1.4.5 2v.1c.1.7.2 1.3.3 2 0 .2 0 .3.1.5.1.5.1 1 .2 1.6V398.5c0 .3-.1.6-.1 1s-.1.8-.1 1.1c-.2 1.4-.5 2.8-.8 4.1-.7 2.7-1.8 5.4-3.2 7.9L481 460.2c-.6-1.7-1.2-3.5-1.8-5.2-1.2-3.5-2.4-6.9-3.6-10.4-.6-1.7-1.2-3.5-1.8-5.2-.6-1.8-1.3-3.6-2-5.4-9.4-26.4-20.2-52.5-32.2-76.7z" class="st10"></path></g></switch></svg>